<?xml version="1.0" encoding="UTF-8"?><svg xmlns="http://www.w3.org/2000/svg" xmlns:xlink="http://www.w3.org/1999/xlink" width="93" zoomAndPan="magnify" viewBox="0 0 93 92.999996" height="92.999996" preserveAspectRatio="xMidYMid meet" version="1.0"><defs><clipPath id="clip-0"><path d="M 2 2 L 91 2 L 91 91.527344 L 2 91.527344 Z M 2 2 " clip-rule="nonzero"/></clipPath><clipPath id="clip-1"><path d="M 19 17 L 68 17 L 68 67 L 19 67 Z M 19 17 " clip-rule="nonzero"/></clipPath><clipPath id="clip-2"><path d="M 18.011719 22.5625 L 64.71875 16.261719 L 70.933594 62.3125 L 24.222656 68.613281 Z M 18.011719 22.5625 " clip-rule="nonzero"/></clipPath><clipPath id="clip-3"><path d="M 18.011719 22.5625 L 64.71875 16.261719 L 70.933594 62.3125 L 24.222656 68.613281 Z M 18.011719 22.5625 " clip-rule="nonzero"/></clipPath></defs><g clip-path="url(#clip-0)"><path fill="rgb(90.979004%, 37.649536%, 29.798889%)" d="M 81.015625 49.015625 C 75.621094 61.515625 51.964844 81.164062 45.996094 85.988281 C 40.394531 81.066406 18.589844 61.457031 10.667969 47.652344 C 6.320312 40.074219 5.214844 30.003906 7.847656 21.996094 C 9.238281 17.773438 12.308594 12.121094 19.054688 9.175781 C 22.300781 7.757812 25.277344 7.195312 27.964844 7.195312 C 38.308594 7.195312 44.289062 15.554688 44.359375 15.660156 L 46.015625 18.121094 L 47.816406 15.769531 C 48.8125 14.464844 49.945312 13.246094 51.179688 12.148438 C 58.898438 5.277344 70.101562 4.589844 77.820312 10.503906 C 87.839844 18.1875 88.882812 30.785156 81.015625 49.015625 Z M 80.40625 7.109375 C 71.074219 -0.046875 57.59375 0.730469 48.351562 8.953125 C 47.585938 9.636719 46.851562 10.359375 46.15625 11.117188 C 41.566406 6.160156 31.113281 -0.753906 17.355469 5.257812 C 10.875 8.085938 6.1875 13.410156 3.804688 20.652344 C 0.761719 29.90625 1.976562 41.066406 6.980469 49.785156 C 16.421875 66.242188 43.414062 89.417969 44.558594 90.394531 L 45.882812 91.527344 L 47.25 90.453125 C 48.519531 89.460938 78.339844 65.972656 84.925781 50.714844 C 93.679688 30.421875 92.203125 16.160156 80.40625 7.109375 " fill-opacity="1" fill-rule="nonzero"/></g><g clip-path="url(#clip-1)"><g clip-path="url(#clip-2)"><g clip-path="url(#clip-3)"><path fill="rgb(90.979004%, 37.649536%, 29.798889%)" d="M 40.414062 66.460938 C 39.816406 66.542969 39.226562 66.386719 38.75 66.023438 L 38.570312 65.886719 L 33.121094 58 L 32.609375 57.613281 L 23.542969 54.464844 L 23.359375 54.328125 C 22.375 53.578125 22.1875 52.171875 22.9375 51.1875 L 25.507812 47.824219 L 33.214844 48.742188 C 33.484375 48.183594 33.8125 47.648438 34.199219 47.140625 L 39.339844 39.820312 L 21 32.753906 L 20.839844 32.628906 C 20.304688 32.222656 19.960938 31.636719 19.871094 30.972656 C 19.78125 30.308594 19.957031 29.648438 20.367188 29.117188 L 24.210938 24.085938 L 47.886719 27.808594 L 53.554688 19.863281 C 54.699219 18.367188 56.335938 17.40625 58.164062 17.160156 C 59.878906 16.929688 61.566406 17.367188 62.914062 18.390625 C 64.316406 19.457031 65.191406 21.03125 65.382812 22.820312 C 65.570312 24.578125 65.066406 26.339844 63.96875 27.78125 L 57.832031 35.273438 L 67.773438 57.195312 L 63.925781 62.222656 C 63.519531 62.757812 62.929688 63.101562 62.265625 63.191406 C 61.597656 63.28125 60.9375 63.105469 60.402344 62.699219 L 60.242188 62.578125 L 60.121094 62.414062 L 48.460938 46.699219 L 42.714844 53.613281 C 42.339844 54.09375 41.929688 54.535156 41.484375 54.929688 L 44.46875 62.238281 L 41.898438 65.597656 C 41.535156 66.074219 41.007812 66.378906 40.414062 66.460938 Z M 25.734375 52.214844 L 33.976562 55.078125 L 35.210938 56.015625 L 40.164062 63.183594 L 41.214844 61.808594 L 38 53.9375 L 38.960938 53.292969 C 39.527344 52.914062 40.035156 52.433594 40.46875 51.867188 L 40.503906 51.820312 L 48.589844 42.089844 L 61.960938 60.109375 L 64.476562 56.820312 L 54.507812 34.839844 L 61.730469 26.019531 C 62.359375 25.199219 62.660156 24.15625 62.546875 23.121094 C 62.441406 22.117188 61.957031 21.238281 61.183594 20.652344 C 60.441406 20.089844 59.503906 19.847656 58.542969 19.976562 C 57.476562 20.121094 56.515625 20.6875 55.832031 21.570312 L 49.1875 30.890625 L 25.445312 27.160156 L 22.929688 30.449219 L 43.761719 38.476562 L 36.484375 48.839844 C 36.035156 49.425781 35.699219 50.058594 35.484375 50.71875 L 35.121094 51.832031 L 26.785156 50.839844 Z M 25.734375 52.214844 " fill-opacity="1" fill-rule="nonzero"/></g></g></g></svg>